<svg width="26" height="26" viewBox="0 0 26 26" fill="none" xmlns="http://www.w3.org/2000/svg">
<path d="M15.2824 12.5285L1.46745 20.9808C1.07088 21.2078 0.75377 21.4799 0.534985 21.7809C0.3162 22.082 0.200214 22.4058 0.193928 22.7331C0.187642 23.0604 0.291188 23.3845 0.498398 23.6861C0.705609 23.9877 1.01225 24.2607 1.40008 24.4888C1.7879 24.7169 2.24899 24.8955 2.75588 25.0139C3.26278 25.1322 3.80514 25.188 4.35067 25.1779C4.89621 25.1677 5.43377 25.0919 5.93138 24.9548C6.42898 24.8178 6.87645 24.6223 7.24716 24.3801L23.9367 14.1787C24.6912 13.7135 25.1115 13.0901 25.1059 12.4441C25.1004 11.7982 24.6695 11.182 23.9071 10.7299L7.05194 0.812231C6.27743 0.386395 5.25455 0.159307 4.19932 0.178923C3.14409 0.19854 2.13911 0.463325 1.39662 0.917362C0.654138 1.3714 0.23227 1.97914 0.220111 2.61225C0.207953 3.24535 0.606456 3.85425 1.33146 4.31036L15.2824 12.5285Z" fill="#EEEEEE" fill-opacity="0.9"/>
</svg>
