<svg width="25" height="25" viewBox="0 0 25 25" fill="none" xmlns="http://www.w3.org/2000/svg">
<path d="M9.82392 12.5554L23.7109 4.22203C24.1094 3.99845 24.4289 3.72907 24.6502 3.42993C24.8716 3.13078 24.9903 2.80799 24.9994 2.48075C25.0085 2.15352 24.9078 1.82853 24.7032 1.52512C24.4985 1.22172 24.1943 0.946105 23.8084 0.714682C23.4226 0.483258 22.963 0.300756 22.4572 0.178035C21.9513 0.055314 21.4094 -0.00511675 20.8638 0.00033909C20.3182 0.00579493 19.78 0.0770257 19.2813 0.209792C18.7825 0.342559 18.3334 0.534148 17.9606 0.773158L1.18408 10.8309C0.425597 11.2896 0 11.9094 0 12.5554C0 13.2013 0.425597 13.8212 1.18408 14.2798L17.9534 24.3419C18.7242 24.7744 19.7451 25.0102 20.8005 24.9997C21.8559 24.9891 22.8631 24.733 23.6094 24.2853C24.3558 23.8377 24.7829 23.2336 24.8005 22.6006C24.818 21.9676 24.4248 21.3553 23.7037 20.893L9.82392 12.5554Z" fill="#EEEEEE" fill-opacity="0.9"/>
</svg>
