<svg xmlns="http://www.w3.org/2000/svg" viewBox="0 0 332.91 250"><defs><style>.cls-1{fill:#82e256;}</style></defs><title>Ресурс 19</title><g id="Слой_2" data-name="Слой 2"><g id="Layer_1" data-name="Layer 1"><polygon class="cls-1" points="108.78 12.51 105.72 12.51 105.72 3.06 96.26 3.06 96.26 0 108.78 0 108.78 12.51"/><polygon class="cls-1" points="102.81 18.48 99.75 18.48 99.75 9.03 90.29 9.03 90.29 5.97 102.81 5.97 102.81 18.48"/><polygon class="cls-1" points="96.83 24.46 93.77 24.46 93.77 15 84.32 15 84.32 11.94 96.83 11.94 96.83 24.46"/><polygon class="cls-1" points="321.69 85.48 317.69 85.48 317.69 73.14 305.35 73.14 305.35 69.14 321.69 69.14 321.69 85.48"/><polygon class="cls-1" points="287.96 32.63 283.97 32.63 283.97 20.28 271.62 20.28 271.62 16.29 287.96 16.29 287.96 32.63"/><polygon class="cls-1" points="332.91 237.48 330.91 237.48 330.91 231.29 324.73 231.29 324.73 229.29 332.91 229.29 332.91 237.48"/><polygon class="cls-1" points="8.19 250 6.19 250 6.19 243.82 0 243.82 0 241.81 8.19 241.81 8.19 250"/><polygon class="cls-1" points="47.1 84.48 45.1 84.48 45.1 78.29 38.91 78.29 38.91 76.29 47.1 76.29 47.1 84.48"/></g></g></svg>